G75*
G70*
%OFA0B0*%
%FSLAX24Y24*%
%IPPOS*%
%LPD*%
%AMOC8*
5,1,8,0,0,1.08239X$1,22.5*
%
%ADD10C,0.0740*%
D10*
X001611Y001581D03*
X002611Y001581D03*
X003611Y001581D03*
X004611Y001581D03*
X005611Y001581D03*
X006611Y001581D03*
X007611Y001581D03*
X008611Y001581D03*
X009611Y001581D03*
X010611Y001581D03*
X011611Y001581D03*
X012611Y001581D03*
X013611Y001581D03*
X013591Y002581D03*
X012591Y002581D03*
X011591Y002581D03*
X010591Y002581D03*
X009591Y002581D03*
X008591Y002581D03*
X007591Y002581D03*
X006591Y002581D03*
X005591Y002581D03*
X004591Y002581D03*
X003591Y002581D03*
X002591Y002581D03*
X001591Y002581D03*
X015101Y002601D03*
X016101Y002601D03*
X017101Y002601D03*
X018101Y002601D03*
X019101Y002601D03*
X020101Y002601D03*
X021101Y002601D03*
X022101Y002601D03*
X023101Y002601D03*
X024101Y002601D03*
X025101Y002601D03*
X026101Y002601D03*
X026101Y001601D03*
X025101Y001601D03*
X024101Y001601D03*
X023101Y001601D03*
X022101Y001601D03*
X021101Y001601D03*
X020101Y001601D03*
X019101Y001601D03*
X018101Y001601D03*
X017101Y001601D03*
X016101Y001601D03*
X015101Y001601D03*
M02*
