G75*
G70*
%OFA0B0*%
%FSLAX24Y24*%
%IPPOS*%
%LPD*%
%AMOC8*
5,1,8,0,0,1.08239X$1,22.5*
%
%ADD10R,0.0157X0.0551*%
%ADD11R,0.0748X0.0925*%
%ADD12C,0.0799*%
D10*
X008278Y010821D03*
X008475Y010821D03*
X008672Y010821D03*
X008869Y010821D03*
X009065Y010821D03*
X009262Y010821D03*
X009459Y010821D03*
X009656Y010821D03*
X009853Y010821D03*
X010050Y010821D03*
X010246Y010821D03*
X010443Y010821D03*
X010640Y010821D03*
X010837Y010821D03*
X011034Y010821D03*
X011231Y010821D03*
X011428Y010821D03*
X011624Y010821D03*
X011821Y010821D03*
X012018Y010821D03*
X012215Y010821D03*
X012412Y010821D03*
X012609Y010821D03*
X012806Y010821D03*
X013002Y010821D03*
X013199Y010821D03*
X013396Y010821D03*
X013593Y010821D03*
X013790Y010821D03*
X013987Y010821D03*
X014183Y010821D03*
X014380Y010821D03*
X014577Y010821D03*
X014774Y010821D03*
X014971Y010821D03*
X015168Y010821D03*
X015365Y010821D03*
X015561Y010821D03*
X015758Y010821D03*
X015955Y010821D03*
X016152Y010821D03*
X016349Y010821D03*
X016546Y010821D03*
X016743Y010821D03*
X016939Y010821D03*
X017136Y010821D03*
X017333Y010821D03*
X017530Y010821D03*
X017727Y010821D03*
X017924Y010821D03*
X016939Y022321D03*
X016743Y022321D03*
X016546Y022321D03*
X016349Y022321D03*
X016152Y022321D03*
X015955Y022321D03*
X015758Y022321D03*
X015561Y022321D03*
X015365Y022321D03*
X015168Y022321D03*
X014971Y022321D03*
X014774Y022321D03*
X014577Y022321D03*
X014380Y022321D03*
X014183Y022321D03*
X013987Y022321D03*
X013790Y022321D03*
X013593Y022321D03*
X013396Y022321D03*
X013199Y022321D03*
X013002Y022321D03*
X012806Y022321D03*
X012609Y022321D03*
X012412Y022321D03*
X012215Y022321D03*
X012018Y022321D03*
X011821Y022321D03*
X011624Y022321D03*
X011428Y022321D03*
X011231Y022321D03*
X011034Y022321D03*
X010837Y022321D03*
X010640Y022321D03*
X010443Y022321D03*
X010246Y022321D03*
X010050Y022321D03*
X009853Y022321D03*
X009656Y022321D03*
X009459Y022321D03*
X009262Y022321D03*
D11*
X008514Y023601D03*
X017687Y023601D03*
X018672Y012101D03*
X007530Y012101D03*
D12*
X001611Y001581D03*
X002611Y001581D03*
X003611Y001581D03*
X004611Y001581D03*
X005611Y001581D03*
X006611Y001581D03*
X007611Y001581D03*
X008611Y001581D03*
X009611Y001581D03*
X010611Y001581D03*
X011611Y001581D03*
X012611Y001581D03*
X013611Y001581D03*
X013591Y002581D03*
X012591Y002581D03*
X011591Y002581D03*
X010591Y002581D03*
X009591Y002581D03*
X008591Y002581D03*
X007591Y002581D03*
X006591Y002581D03*
X005591Y002581D03*
X004591Y002581D03*
X003591Y002581D03*
X002591Y002581D03*
X001591Y002581D03*
X015101Y002601D03*
X016101Y002601D03*
X017101Y002601D03*
X018101Y002601D03*
X019101Y002601D03*
X020101Y002601D03*
X021101Y002601D03*
X022101Y002601D03*
X023101Y002601D03*
X024101Y002601D03*
X025101Y002601D03*
X026101Y002601D03*
X026101Y001601D03*
X025101Y001601D03*
X024101Y001601D03*
X023101Y001601D03*
X022101Y001601D03*
X021101Y001601D03*
X020101Y001601D03*
X019101Y001601D03*
X018101Y001601D03*
X017101Y001601D03*
X016101Y001601D03*
X015101Y001601D03*
M02*
