G75*
G70*
%OFA0B0*%
%FSLAX24Y24*%
%IPPOS*%
%LPD*%
%AMOC8*
5,1,8,0,0,1.08239X$1,22.5*
%
%ADD10C,0.0000*%
%ADD11C,0.0070*%
%ADD12C,0.0060*%
%ADD13C,0.0080*%
%ADD14C,0.0040*%
%ADD15C,0.0050*%
D10*
X000101Y000101D02*
X000101Y025471D01*
X027093Y025471D01*
X027093Y000101D01*
X000101Y000101D01*
D11*
X024907Y012680D02*
X025045Y012680D01*
X025322Y012680D02*
X025876Y012680D01*
X025876Y012542D02*
X025876Y012819D01*
X025322Y012680D02*
X025322Y012542D01*
X025322Y012266D02*
X025322Y011990D01*
X025184Y012128D02*
X025737Y012128D01*
X025876Y012266D01*
X025876Y011714D02*
X025876Y011437D01*
X025876Y011576D02*
X025045Y011576D01*
X025045Y011437D01*
X025322Y011162D02*
X025876Y011162D01*
X025876Y010747D01*
X025737Y010608D01*
X025322Y010608D01*
X025045Y010334D02*
X025876Y010334D01*
X025876Y009780D02*
X025045Y009780D01*
X025322Y010057D01*
X025045Y010334D01*
X025045Y013923D02*
X025045Y014477D01*
X025045Y014752D02*
X025045Y015167D01*
X025184Y015306D01*
X025460Y015306D01*
X025599Y015167D01*
X025599Y014752D01*
X025876Y014752D02*
X025045Y014752D01*
X025460Y014200D02*
X025460Y013923D01*
X025045Y013923D02*
X025876Y013923D01*
X025737Y015581D02*
X025184Y015581D01*
X025045Y015719D01*
X025045Y015996D01*
X025184Y016134D01*
X025737Y016134D02*
X025876Y015996D01*
X025876Y015719D01*
X025737Y015581D01*
X025737Y017238D02*
X025184Y017238D01*
X025045Y017376D01*
X025045Y017653D01*
X025184Y017792D01*
X025460Y018067D02*
X025737Y018067D01*
X025876Y018205D01*
X025876Y018482D01*
X025737Y018620D01*
X025460Y018620D01*
X025322Y018482D01*
X025322Y018205D01*
X025460Y018067D01*
X025737Y017792D02*
X025876Y017653D01*
X025876Y017376D01*
X025737Y017238D01*
X025876Y018895D02*
X025322Y018895D01*
X025322Y019311D01*
X025460Y019449D01*
X025876Y019449D01*
X025876Y019724D02*
X025322Y019724D01*
X025322Y020139D01*
X025460Y020278D01*
X025876Y020278D01*
X025737Y020553D02*
X025460Y020553D01*
X025322Y020691D01*
X025322Y020968D01*
X025460Y021107D01*
X025599Y021107D01*
X025599Y020553D01*
X025737Y020553D02*
X025876Y020691D01*
X025876Y020968D01*
X025737Y021381D02*
X025460Y021381D01*
X025322Y021520D01*
X025322Y021935D01*
X025322Y022210D02*
X025322Y022487D01*
X025184Y022349D02*
X025737Y022349D01*
X025876Y022487D01*
X025737Y022763D02*
X025876Y022901D01*
X025876Y023178D01*
X025737Y023316D01*
X025460Y023316D01*
X025322Y023178D01*
X025322Y022901D01*
X025460Y022763D01*
X025737Y022763D01*
X025876Y021935D02*
X025876Y021520D01*
X025737Y021381D01*
X025599Y023591D02*
X025322Y023868D01*
X025322Y024007D01*
X025322Y023591D02*
X025876Y023591D01*
D12*
X018700Y022303D02*
X018700Y021876D01*
X018594Y021769D01*
X018380Y021769D01*
X018273Y021876D01*
X018700Y022303D01*
X018594Y022409D01*
X018380Y022409D01*
X018273Y022303D01*
X018273Y021876D01*
X018056Y022089D02*
X017629Y022089D01*
X017949Y022409D01*
X017949Y021769D01*
X008324Y021867D02*
X007897Y021867D01*
X008110Y021867D02*
X008110Y022507D01*
X007897Y022294D01*
X006854Y010929D02*
X006854Y010289D01*
X006641Y010289D02*
X007068Y010289D01*
X006641Y010716D02*
X006854Y010929D01*
X018949Y010897D02*
X018949Y010577D01*
X019162Y010684D01*
X019269Y010684D01*
X019376Y010577D01*
X019376Y010364D01*
X019269Y010257D01*
X019056Y010257D01*
X018949Y010364D01*
X018949Y010897D02*
X019376Y010897D01*
X019593Y010791D02*
X019700Y010897D01*
X019914Y010897D01*
X020020Y010791D01*
X019593Y010364D01*
X019700Y010257D01*
X019914Y010257D01*
X020020Y010364D01*
X020020Y010791D01*
X019593Y010791D02*
X019593Y010364D01*
D13*
X018593Y011117D02*
X018593Y011510D01*
X018593Y011117D02*
X018120Y011117D01*
X018593Y012691D02*
X018593Y012849D01*
X018475Y012849D01*
X007727Y012849D01*
X007609Y012849D01*
X007609Y012691D01*
X007727Y012849D02*
X007727Y012967D01*
X007609Y012967D01*
X007609Y013243D01*
X018593Y013243D01*
X018593Y012967D01*
X018475Y012967D01*
X018475Y012849D01*
X018002Y012967D02*
X017845Y012967D01*
X017924Y013124D01*
X018002Y012967D01*
X017995Y012982D02*
X017852Y012982D01*
X017892Y013060D02*
X017956Y013060D01*
X017609Y022617D02*
X017136Y022617D01*
X017609Y022617D02*
X017609Y023010D01*
X017609Y024191D02*
X017609Y024349D01*
X017491Y024349D01*
X008711Y024349D01*
X008593Y024349D01*
X008593Y024191D01*
X008711Y024349D02*
X008711Y024467D01*
X008593Y024467D01*
X008593Y024743D01*
X017609Y024743D01*
X017609Y024467D01*
X017491Y024467D01*
X017491Y024349D01*
X017018Y024467D02*
X016861Y024467D01*
X016939Y024624D01*
X017018Y024467D01*
X016988Y024528D02*
X016891Y024528D01*
X016930Y024606D02*
X016948Y024606D01*
X009065Y022617D02*
X008593Y022617D01*
X008593Y023010D01*
X007609Y011510D02*
X007609Y011117D01*
X008081Y011117D01*
X007841Y003081D02*
X007341Y003081D01*
X007091Y002831D01*
X006841Y003081D01*
X006341Y003081D01*
X006091Y002831D01*
X005841Y003081D01*
X005341Y003081D01*
X005091Y002831D01*
X004841Y003081D01*
X004341Y003081D01*
X004091Y002831D01*
X003841Y003081D01*
X003341Y003081D01*
X003091Y002831D01*
X002841Y003081D01*
X002341Y003081D01*
X002091Y002831D01*
X001841Y003081D01*
X001341Y003081D01*
X001091Y002831D01*
X001091Y002331D01*
X001341Y002081D01*
X001841Y002081D01*
X002091Y002331D01*
X002341Y002081D01*
X002841Y002081D01*
X003091Y002331D01*
X003341Y002081D01*
X003841Y002081D01*
X004091Y002331D01*
X004341Y002081D01*
X004841Y002081D01*
X005091Y002331D01*
X005341Y002081D01*
X005841Y002081D01*
X006091Y002331D01*
X006341Y002081D01*
X006841Y002081D01*
X007091Y002331D01*
X007341Y002081D01*
X007841Y002081D01*
X008091Y002331D01*
X008341Y002081D01*
X008841Y002081D01*
X009091Y002331D01*
X009341Y002081D01*
X009841Y002081D01*
X010091Y002331D01*
X010341Y002081D01*
X010841Y002081D01*
X011091Y002331D01*
X011341Y002081D01*
X011841Y002081D01*
X012091Y002331D01*
X012341Y002081D01*
X012841Y002081D01*
X013091Y002331D01*
X013341Y002081D01*
X013841Y002081D01*
X014091Y002331D01*
X014091Y002831D01*
X013841Y003081D01*
X013341Y003081D01*
X013091Y002831D01*
X012841Y003081D01*
X012341Y003081D01*
X012091Y002831D01*
X011841Y003081D01*
X011341Y003081D01*
X011091Y002831D01*
X010841Y003081D01*
X010341Y003081D01*
X010091Y002831D01*
X009841Y003081D01*
X009341Y003081D01*
X009091Y002831D01*
X008841Y003081D01*
X008341Y003081D01*
X008091Y002831D01*
X007841Y003081D01*
X007861Y002081D02*
X007361Y002081D01*
X007111Y001831D01*
X006861Y002081D01*
X006361Y002081D01*
X006111Y001831D01*
X005861Y002081D01*
X005361Y002081D01*
X005111Y001831D01*
X004861Y002081D01*
X004361Y002081D01*
X004111Y001831D01*
X003861Y002081D01*
X003361Y002081D01*
X003111Y001831D01*
X002861Y002081D01*
X002361Y002081D01*
X002111Y001831D01*
X001861Y002081D01*
X001361Y002081D01*
X001111Y001831D01*
X001111Y001331D01*
X001361Y001081D01*
X001861Y001081D01*
X002111Y001331D01*
X002361Y001081D01*
X002861Y001081D01*
X003111Y001331D01*
X003361Y001081D01*
X003861Y001081D01*
X004111Y001331D01*
X004361Y001081D01*
X004861Y001081D01*
X005111Y001331D01*
X005361Y001081D01*
X005861Y001081D01*
X006111Y001331D01*
X006361Y001081D01*
X006861Y001081D01*
X007111Y001331D01*
X007361Y001081D01*
X007861Y001081D01*
X008111Y001331D01*
X008361Y001081D01*
X008861Y001081D01*
X009111Y001331D01*
X009361Y001081D01*
X009861Y001081D01*
X010111Y001331D01*
X010361Y001081D01*
X010861Y001081D01*
X011111Y001331D01*
X011361Y001081D01*
X011861Y001081D01*
X012111Y001331D01*
X012361Y001081D01*
X012861Y001081D01*
X013111Y001331D01*
X013361Y001081D01*
X013861Y001081D01*
X014111Y001331D01*
X014111Y001831D01*
X013861Y002081D01*
X013361Y002081D01*
X013111Y001831D01*
X012861Y002081D01*
X012361Y002081D01*
X012111Y001831D01*
X011861Y002081D01*
X011361Y002081D01*
X011111Y001831D01*
X010861Y002081D01*
X010361Y002081D01*
X010111Y001831D01*
X009861Y002081D01*
X009361Y002081D01*
X009111Y001831D01*
X008861Y002081D01*
X008361Y002081D01*
X008111Y001831D01*
X007861Y002081D01*
X014601Y001851D02*
X014601Y001351D01*
X014851Y001101D01*
X015351Y001101D01*
X015601Y001351D01*
X015851Y001101D01*
X016351Y001101D01*
X016601Y001351D01*
X016851Y001101D01*
X017351Y001101D01*
X017601Y001351D01*
X017851Y001101D01*
X018351Y001101D01*
X018601Y001351D01*
X018851Y001101D01*
X019351Y001101D01*
X019601Y001351D01*
X019851Y001101D01*
X020351Y001101D01*
X020601Y001351D01*
X020851Y001101D01*
X021351Y001101D01*
X021601Y001351D01*
X021851Y001101D01*
X022351Y001101D01*
X022601Y001351D01*
X022851Y001101D01*
X023351Y001101D01*
X023601Y001351D01*
X023851Y001101D01*
X024351Y001101D01*
X024601Y001351D01*
X024851Y001101D01*
X025351Y001101D01*
X025601Y001351D01*
X025851Y001101D01*
X026351Y001101D01*
X026601Y001351D01*
X026601Y001851D01*
X026351Y002101D01*
X025851Y002101D01*
X025601Y001851D01*
X025351Y002101D01*
X024851Y002101D01*
X024601Y001851D01*
X024351Y002101D01*
X023851Y002101D01*
X023601Y001851D01*
X023351Y002101D01*
X022851Y002101D01*
X022601Y001851D01*
X022351Y002101D01*
X021851Y002101D01*
X021601Y001851D01*
X021351Y002101D01*
X020851Y002101D01*
X020601Y001851D01*
X020351Y002101D01*
X019851Y002101D01*
X019601Y001851D01*
X019351Y002101D01*
X018851Y002101D01*
X018601Y001851D01*
X018351Y002101D01*
X017851Y002101D01*
X017601Y001851D01*
X017351Y002101D01*
X016851Y002101D01*
X016601Y001851D01*
X016351Y002101D01*
X015851Y002101D01*
X015601Y001851D01*
X015351Y002101D01*
X014851Y002101D01*
X014601Y001851D01*
X014851Y002101D02*
X015351Y002101D01*
X015601Y002351D01*
X015851Y002101D01*
X016351Y002101D01*
X016601Y002351D01*
X016851Y002101D01*
X017351Y002101D01*
X017601Y002351D01*
X017851Y002101D01*
X018351Y002101D01*
X018601Y002351D01*
X018851Y002101D01*
X019351Y002101D01*
X019601Y002351D01*
X019851Y002101D01*
X020351Y002101D01*
X020601Y002351D01*
X020851Y002101D01*
X021351Y002101D01*
X021601Y002351D01*
X021851Y002101D01*
X022351Y002101D01*
X022601Y002351D01*
X022851Y002101D01*
X023351Y002101D01*
X023601Y002351D01*
X023851Y002101D01*
X024351Y002101D01*
X024601Y002351D01*
X024851Y002101D01*
X025351Y002101D01*
X025601Y002351D01*
X025851Y002101D01*
X026351Y002101D01*
X026601Y002351D01*
X026601Y002851D01*
X026351Y003101D01*
X025851Y003101D01*
X025601Y002851D01*
X025351Y003101D01*
X024851Y003101D01*
X024601Y002851D01*
X024351Y003101D01*
X023851Y003101D01*
X023601Y002851D01*
X023351Y003101D01*
X022851Y003101D01*
X022601Y002851D01*
X022351Y003101D01*
X021851Y003101D01*
X021601Y002851D01*
X021351Y003101D01*
X020851Y003101D01*
X020601Y002851D01*
X020351Y003101D01*
X019851Y003101D01*
X019601Y002851D01*
X019351Y003101D01*
X018851Y003101D01*
X018601Y002851D01*
X018351Y003101D01*
X017851Y003101D01*
X017601Y002851D01*
X017351Y003101D01*
X016851Y003101D01*
X016601Y002851D01*
X016351Y003101D01*
X015851Y003101D01*
X015601Y002851D01*
X015351Y003101D01*
X014851Y003101D01*
X014601Y002851D01*
X014601Y002351D01*
X014851Y002101D01*
D14*
X007194Y012757D02*
X006888Y012757D01*
X007041Y012757D02*
X007041Y013217D01*
X006888Y013064D01*
X006734Y013217D02*
X006427Y012757D01*
X006734Y012757D02*
X006427Y013217D01*
X007359Y024195D02*
X007666Y024655D01*
X007819Y024578D02*
X007896Y024655D01*
X008049Y024655D01*
X008126Y024578D01*
X008126Y024501D01*
X007819Y024195D01*
X008126Y024195D01*
X007666Y024195D02*
X007359Y024655D01*
D15*
X001459Y004602D02*
X001309Y004452D01*
X001149Y004377D02*
X001074Y004302D01*
X000849Y004302D01*
X000849Y004152D02*
X000849Y004602D01*
X001074Y004602D01*
X001149Y004527D01*
X001149Y004377D01*
X001309Y004152D02*
X001610Y004152D01*
X001459Y004152D02*
X001459Y004602D01*
X000689Y004602D02*
X000539Y004602D01*
X000614Y004602D02*
X000614Y004227D01*
X000539Y004152D01*
X000464Y004152D01*
X000389Y004227D01*
X001546Y000840D02*
X001696Y000840D01*
X001621Y000840D02*
X001621Y000465D01*
X001546Y000390D01*
X001471Y000390D01*
X001396Y000465D01*
X001856Y000540D02*
X002081Y000540D01*
X002156Y000615D01*
X002156Y000765D01*
X002081Y000840D01*
X001856Y000840D01*
X001856Y000390D01*
X002316Y000390D02*
X002617Y000690D01*
X002617Y000765D01*
X002542Y000840D01*
X002391Y000840D01*
X002316Y000765D01*
X002316Y000390D02*
X002617Y000390D01*
X025274Y000565D02*
X025349Y000490D01*
X025424Y000490D01*
X025499Y000565D01*
X025499Y000940D01*
X025424Y000940D02*
X025574Y000940D01*
X025734Y000940D02*
X025959Y000940D01*
X026034Y000865D01*
X026034Y000715D01*
X025959Y000640D01*
X025734Y000640D01*
X025734Y000490D02*
X025734Y000940D01*
X026194Y000715D02*
X026495Y000715D01*
X026420Y000490D02*
X026420Y000940D01*
X026194Y000715D01*
X026026Y004064D02*
X026026Y004514D01*
X026251Y004514D01*
X026326Y004439D01*
X026326Y004289D01*
X026251Y004214D01*
X026026Y004214D01*
X025791Y004139D02*
X025716Y004064D01*
X025641Y004064D01*
X025566Y004139D01*
X025791Y004139D02*
X025791Y004514D01*
X025716Y004514D02*
X025866Y004514D01*
X026486Y004439D02*
X026561Y004514D01*
X026712Y004514D01*
X026787Y004439D01*
X026787Y004364D01*
X026712Y004289D01*
X026787Y004214D01*
X026787Y004139D01*
X026712Y004064D01*
X026561Y004064D01*
X026486Y004139D01*
X026637Y004289D02*
X026712Y004289D01*
M02*
