%
M48
M72
T01C0.0400
%
T01
X1611Y1581
X2611Y1581
X3611Y1581
X4611Y1581
X5611Y1581
X6611Y1581
X7611Y1581
X8611Y1581
X9611Y1581
X10611Y1581
X11611Y1581
X12611Y1581
X13611Y1581
X13591Y2581
X12591Y2581
X11591Y2581
X10591Y2581
X9591Y2581
X8591Y2581
X7591Y2581
X6591Y2581
X5591Y2581
X4591Y2581
X3591Y2581
X2591Y2581
X1591Y2581
X15101Y2601
X16101Y2601
X17101Y2601
X18101Y2601
X19101Y2601
X20101Y2601
X21101Y2601
X22101Y2601
X23101Y2601
X24101Y2601
X25101Y2601
X26101Y2601
X26101Y1601
X25101Y1601
X24101Y1601
X23101Y1601
X22101Y1601
X21101Y1601
X20101Y1601
X19101Y1601
X18101Y1601
X17101Y1601
X16101Y1601
X15101Y1601
M30
